<svg viewBox="0 0 400 120" xmlns="http://www.w3.org/2000/svg">
  <!-- House Icon -->
  <g>
    <rect x="20" y="50" width="70" height="60" fill="none" stroke="#a8332e" stroke-width="4" rx="4"/>
    <path d="M 20 50 L 55 20 L 90 50" fill="none" stroke="#a8332e" stroke-width="4" stroke-linejoin="round"/>
    <rect x="35" y="55" width="12" height="12" fill="none" stroke="#a8332e" stroke-width="2"/>
    <path d="M 50 75 Q 50 70 55 70 Q 60 70 60 75 L 60 90" fill="none" stroke="#a8332e" stroke-width="4" stroke-linecap="round"/>
    <!-- Bricks on right side -->
    <g stroke="#a8332e" stroke-width="2" fill="none">
      <line x1="90" y1="50" x2="105" y2="50"/>
      <line x1="90" y1="58" x2="110" y2="58"/>
      <line x1="90" y1="66" x2="105" y2="66"/>
      <line x1="90" y1="74" x2="110" y2="74"/>
      <line x1="90" y1="82" x2="105" y2="82"/>
      <line x1="90" y1="90" x2="110" y2="90"/>
      <line x1="90" y1="98" x2="105" y2="98"/>
      <line x1="95" y1="45" x2="110" y2="45"/>
      <line x1="95" y1="53" x2="115" y2="53"/>
      <line x1="95" y1="61" x2="110" y2="61"/>
      <line x1="95" y1="69" x2="115" y2="69"/>
      <line x1="95" y1="77" x2="110" y2="77"/>
      <line x1="95" y1="85" x2="115" y2="85"/>
      <line x1="95" y1="93" x2="110" y2="93"/>
      <line x1="95" y1="101" x2="110" y2="101"/>
    </g>
  </g>

  <!-- Text "Build-IT" -->
  <text x="130" y="85" font-family="Arial, sans-serif" font-size="54" font-weight="bold" fill="#a8332e">
    Build-IT
  </text>
</svg>
